<mxfile host="app.diagrams.net" modified="2020-11-29T14:53:45.828Z" agent="5.0 (Windows NT 10.0; Win64; x64) AppleWebKit/537.36 (KHTML, like Gecko) Chrome/87.0.4280.66 Safari/537.36" etag="z87tQodwsy2DyRKpYDhL" version="13.10.1" type="github">
  <diagram id="bB6NIZYcNNqOtCEdejzV" name="Page-1">
    <mxGraphModel dx="1639" dy="762" grid="1" gridSize="10" guides="1" tooltips="1" connect="1" arrows="1" fold="1" page="1" pageScale="1" pageWidth="1100" pageHeight="850" background="#ffffff" math="0" shadow="0">
      <root>
        <mxCell id="0" />
        <mxCell id="1" parent="0" />
        <mxCell id="1c7a67bf8fd3230f-83" value="Bus" style="whiteSpace=wrap;html=1;rounded=0;shadow=0;comic=0;strokeWidth=1;fontFamily=Verdana;fontSize=14;fillColor=#f5f5f5;strokeColor=none;verticalAlign=top;fontStyle=1" parent="1" vertex="1">
          <mxGeometry x="400" y="320" width="1180" height="440" as="geometry" />
        </mxCell>
        <mxCell id="1c7a67bf8fd3230f-81" value="Grafana" style="whiteSpace=wrap;html=1;rounded=0;shadow=0;comic=0;strokeWidth=1;fontFamily=Verdana;fontSize=14;fillColor=#f5f5f5;strokeColor=none;fontStyle=1;verticalAlign=top;" parent="1" vertex="1">
          <mxGeometry x="384" y="690" width="258" height="170" as="geometry" />
        </mxCell>
        <mxCell id="1c7a67bf8fd3230f-80" value="Telegram" style="whiteSpace=wrap;html=1;rounded=0;shadow=0;comic=0;strokeWidth=1;fontFamily=Verdana;fontSize=14;fillColor=#f5f5f5;strokeColor=none;fontStyle=1;verticalAlign=top;" parent="1" vertex="1">
          <mxGeometry x="780" y="960" width="232" height="370" as="geometry" />
        </mxCell>
        <mxCell id="1c7a67bf8fd3230f-64" style="edgeStyle=none;html=1;labelBackgroundColor=none;startFill=0;endArrow=none;endFill=0;strokeWidth=2;fontFamily=Verdana;fontSize=12;" parent="1" source="1c7a67bf8fd3230f-6" edge="1">
          <mxGeometry relative="1" as="geometry">
            <mxPoint x="591" y="500.5572519083971" as="targetPoint" />
          </mxGeometry>
        </mxCell>
        <mxCell id="1c7a67bf8fd3230f-6" value="" style="shape=mxgraph.cisco.switches.content_switch;html=1;dashed=0;fillColor=#036897;strokeColor=#ffffff;strokeWidth=2;verticalLabelPosition=bottom;verticalAlign=top;rounded=0;shadow=0;comic=0;fontFamily=Verdana;fontSize=12;" parent="1" vertex="1">
          <mxGeometry x="674" y="450" width="64" height="86" as="geometry" />
        </mxCell>
        <mxCell id="1c7a67bf8fd3230f-66" style="edgeStyle=none;html=1;labelBackgroundColor=none;startFill=0;endArrow=none;endFill=0;strokeWidth=2;fontFamily=Verdana;fontSize=12;" parent="1" source="1c7a67bf8fd3230f-16" edge="1">
          <mxGeometry relative="1" as="geometry">
            <mxPoint x="932.0283687943256" y="1118" as="targetPoint" />
          </mxGeometry>
        </mxCell>
        <mxCell id="1c7a67bf8fd3230f-16" value="" style="shape=mxgraph.cisco.misc.route_switch_processor;html=1;dashed=0;fillColor=#036897;strokeColor=#ffffff;strokeWidth=2;verticalLabelPosition=bottom;verticalAlign=top;rounded=0;shadow=0;comic=0;fontFamily=Verdana;fontSize=12;" parent="1" vertex="1">
          <mxGeometry x="932" y="977" width="64" height="86" as="geometry" />
        </mxCell>
        <mxCell id="1c7a67bf8fd3230f-17" value="" style="shape=mxgraph.cisco.misc.route_switch_processor;html=1;dashed=0;fillColor=#036897;strokeColor=#ffffff;strokeWidth=2;verticalLabelPosition=bottom;verticalAlign=top;rounded=0;shadow=0;comic=0;fontFamily=Verdana;fontSize=12;" parent="1" vertex="1">
          <mxGeometry x="486" y="740" width="64" height="86" as="geometry" />
        </mxCell>
        <mxCell id="8O-4UDquNe1LH9vyQnWJ-2" value="Telegram Client&lt;br&gt;(Handy)" style="text;html=1;strokeColor=none;fillColor=none;align=center;verticalAlign=middle;whiteSpace=wrap;rounded=0;fontSize=16;" parent="1" vertex="1">
          <mxGeometry x="875.5" y="1245.8" width="120" height="54" as="geometry" />
        </mxCell>
        <mxCell id="8O-4UDquNe1LH9vyQnWJ-3" value="Telegram Bot" style="text;html=1;strokeColor=none;fillColor=none;align=center;verticalAlign=middle;whiteSpace=wrap;rounded=0;fontSize=16;" parent="1" vertex="1">
          <mxGeometry x="812" y="1009" width="120" height="54" as="geometry" />
        </mxCell>
        <mxCell id="8O-4UDquNe1LH9vyQnWJ-9" value="" style="ellipse;whiteSpace=wrap;html=1;rounded=0;shadow=0;dashed=0;fontFamily=Verdana;verticalAlign=top;strokeColor=#ffffff;strokeWidth=2;fillColor=#036897;comic=0;" parent="1" vertex="1">
          <mxGeometry x="980" y="580" width="120" height="80" as="geometry" />
        </mxCell>
        <mxCell id="8O-4UDquNe1LH9vyQnWJ-11" value="Raspberry&amp;nbsp;&lt;br&gt;Pi" style="text;html=1;strokeColor=none;fillColor=none;align=center;verticalAlign=middle;whiteSpace=wrap;rounded=0;fontSize=16;fontColor=#FFFFFF;" parent="1" vertex="1">
          <mxGeometry x="1020" y="615" width="40" height="20" as="geometry" />
        </mxCell>
        <mxCell id="8O-4UDquNe1LH9vyQnWJ-12" value="ESP 32" style="text;html=1;strokeColor=none;fillColor=none;align=center;verticalAlign=middle;whiteSpace=wrap;rounded=0;fontSize=16;" parent="1" vertex="1">
          <mxGeometry x="664" y="427" width="74" height="20" as="geometry" />
        </mxCell>
        <mxCell id="8O-4UDquNe1LH9vyQnWJ-17" value="BMP280&lt;br&gt;(Â°C / hPa)" style="whiteSpace=wrap;html=1;aspect=fixed;fontSize=16;fontColor=#000000;" parent="1" vertex="1">
          <mxGeometry x="510" y="453" width="80" height="80" as="geometry" />
        </mxCell>
        <mxCell id="8O-4UDquNe1LH9vyQnWJ-19" value="Wifi" style="ellipse;shape=cloud;whiteSpace=wrap;html=1;fontSize=16;fontColor=#000000;" parent="1" vertex="1">
          <mxGeometry x="810" y="395" width="120" height="80" as="geometry" />
        </mxCell>
        <mxCell id="8O-4UDquNe1LH9vyQnWJ-22" value="" style="endArrow=none;dashed=1;html=1;dashPattern=1 3;strokeWidth=2;fontSize=16;fontColor=#000000;exitX=1;exitY=0.5;exitDx=0;exitDy=0;exitPerimeter=0;entryX=0.16;entryY=0.55;entryDx=0;entryDy=0;entryPerimeter=0;" parent="1" source="1c7a67bf8fd3230f-6" target="8O-4UDquNe1LH9vyQnWJ-19" edge="1">
          <mxGeometry width="50" height="50" relative="1" as="geometry">
            <mxPoint x="1190" y="620" as="sourcePoint" />
            <mxPoint x="1240" y="570" as="targetPoint" />
          </mxGeometry>
        </mxCell>
        <mxCell id="8O-4UDquNe1LH9vyQnWJ-23" value="" style="endArrow=none;dashed=1;html=1;dashPattern=1 3;strokeWidth=2;fontSize=16;fontColor=#000000;exitX=0.96;exitY=0.7;exitDx=0;exitDy=0;exitPerimeter=0;entryX=0;entryY=0.5;entryDx=0;entryDy=0;" parent="1" source="8O-4UDquNe1LH9vyQnWJ-19" target="8O-4UDquNe1LH9vyQnWJ-9" edge="1">
          <mxGeometry width="50" height="50" relative="1" as="geometry">
            <mxPoint x="1190" y="620" as="sourcePoint" />
            <mxPoint x="1240" y="570" as="targetPoint" />
          </mxGeometry>
        </mxCell>
        <mxCell id="8O-4UDquNe1LH9vyQnWJ-31" value="" style="endArrow=classic;startArrow=classic;html=1;fontSize=16;fontColor=#000000;exitX=0;exitY=0.5;exitDx=0;exitDy=0;entryX=1;entryY=0.5;entryDx=0;entryDy=0;" parent="1" source="8O-4UDquNe1LH9vyQnWJ-32" target="PBQgG6vs_vNaJ8AgEKtN-3" edge="1">
          <mxGeometry width="50" height="50" relative="1" as="geometry">
            <mxPoint x="1190" y="620" as="sourcePoint" />
            <mxPoint x="1240" y="570" as="targetPoint" />
          </mxGeometry>
        </mxCell>
        <mxCell id="8O-4UDquNe1LH9vyQnWJ-32" value="Mqtt&lt;br&gt;Broker" style="whiteSpace=wrap;html=1;aspect=fixed;fontSize=16;fontColor=#000000;" parent="1" vertex="1">
          <mxGeometry x="760" y="560" width="110" height="110" as="geometry" />
        </mxCell>
        <mxCell id="8O-4UDquNe1LH9vyQnWJ-33" value="" style="endArrow=classic;startArrow=classic;html=1;fontSize=16;fontColor=#000000;exitX=0;exitY=0.5;exitDx=0;exitDy=0;entryX=1;entryY=0.5;entryDx=0;entryDy=0;" parent="1" source="8O-4UDquNe1LH9vyQnWJ-9" target="8O-4UDquNe1LH9vyQnWJ-32" edge="1">
          <mxGeometry width="50" height="50" relative="1" as="geometry">
            <mxPoint x="1110" y="630" as="sourcePoint" />
            <mxPoint x="1318.5" y="667.0666666666668" as="targetPoint" />
          </mxGeometry>
        </mxCell>
        <mxCell id="PBQgG6vs_vNaJ8AgEKtN-1" value="InfluxDB" style="whiteSpace=wrap;html=1;aspect=fixed;" parent="1" vertex="1">
          <mxGeometry x="450" y="575" width="80" height="80" as="geometry" />
        </mxCell>
        <mxCell id="PBQgG6vs_vNaJ8AgEKtN-3" value="Mqtt Subscriber" style="whiteSpace=wrap;html=1;aspect=fixed;" parent="1" vertex="1">
          <mxGeometry x="606" y="575" width="80" height="80" as="geometry" />
        </mxCell>
        <mxCell id="PBQgG6vs_vNaJ8AgEKtN-5" value="" style="endArrow=classic;startArrow=classic;html=1;exitX=1;exitY=0.5;exitDx=0;exitDy=0;entryX=0;entryY=0.5;entryDx=0;entryDy=0;" parent="1" source="PBQgG6vs_vNaJ8AgEKtN-1" target="PBQgG6vs_vNaJ8AgEKtN-3" edge="1">
          <mxGeometry width="50" height="50" relative="1" as="geometry">
            <mxPoint x="840" y="880" as="sourcePoint" />
            <mxPoint x="890" y="830" as="targetPoint" />
          </mxGeometry>
        </mxCell>
        <mxCell id="PBQgG6vs_vNaJ8AgEKtN-6" value="" style="endArrow=classic;html=1;exitX=0.5;exitY=0;exitDx=0;exitDy=0;entryX=0.5;entryY=1;entryDx=0;entryDy=0;" parent="1" source="1c7a67bf8fd3230f-81" target="PBQgG6vs_vNaJ8AgEKtN-1" edge="1">
          <mxGeometry width="50" height="50" relative="1" as="geometry">
            <mxPoint x="840" y="880" as="sourcePoint" />
            <mxPoint x="350" y="730" as="targetPoint" />
          </mxGeometry>
        </mxCell>
        <mxCell id="PBQgG6vs_vNaJ8AgEKtN-21" value="" style="shape=mxgraph.bpmn.shape;html=1;verticalLabelPosition=bottom;labelBackgroundColor=#ffffff;verticalAlign=top;align=center;perimeter=ellipsePerimeter;outlineConnect=0;outline=boundInt;symbol=parallelMultiple;" parent="1" vertex="1">
          <mxGeometry x="510" y="403" width="50" height="50" as="geometry" />
        </mxCell>
        <mxCell id="a5hrNvRQqh1UAUawmXAg-1" value="Internet" style="ellipse;shape=cloud;whiteSpace=wrap;html=1;rounded=0;shadow=0;comic=0;strokeWidth=1;fontFamily=Verdana;fontSize=12;" parent="1" vertex="1">
          <mxGeometry x="960" y="800" width="120" height="80" as="geometry" />
        </mxCell>
        <mxCell id="a5hrNvRQqh1UAUawmXAg-2" value="Verbindung mit VPN-Tunnel" style="whiteSpace=wrap;html=1;aspect=fixed;" parent="1" vertex="1">
          <mxGeometry x="1258.3" y="760" width="80" height="80" as="geometry" />
        </mxCell>
        <mxCell id="a5hrNvRQqh1UAUawmXAg-3" value="&lt;div&gt;Verbindung mit folgenden Netzwerken: eduroam&lt;/div&gt;&lt;div&gt;LTE&lt;br&gt;&lt;/div&gt;" style="whiteSpace=wrap;html=1;aspect=fixed;" parent="1" vertex="1">
          <mxGeometry x="1258.3" y="840" width="80" height="80" as="geometry" />
        </mxCell>
        <mxCell id="PBQgG6vs_vNaJ8AgEKtN-22" value="" style="points=[];aspect=fixed;html=1;align=center;shadow=0;dashed=0;image;image=img/lib/allied_telesis/computer_and_terminals/VOIP_IP_phone.svg;" parent="1" vertex="1">
          <mxGeometry x="875.5" y="1090" width="102.5" height="155.8" as="geometry" />
        </mxCell>
        <mxCell id="PBQgG6vs_vNaJ8AgEKtN-24" value="" style="points=[];aspect=fixed;html=1;align=center;shadow=0;dashed=0;image;image=img/lib/allied_telesis/wireless/Access_Point_Indoor.svg;" parent="1" vertex="1">
          <mxGeometry x="978" y="550" width="36.6" height="54.6" as="geometry" />
        </mxCell>
        <mxCell id="a5hrNvRQqh1UAUawmXAg-5" value="" style="endArrow=classic;startArrow=classic;html=1;" parent="1" source="8O-4UDquNe1LH9vyQnWJ-9" target="a5hrNvRQqh1UAUawmXAg-1" edge="1">
          <mxGeometry width="50" height="50" relative="1" as="geometry">
            <mxPoint x="1060" y="920" as="sourcePoint" />
            <mxPoint x="1110" y="870" as="targetPoint" />
          </mxGeometry>
        </mxCell>
        <mxCell id="PBQgG6vs_vNaJ8AgEKtN-25" value="" style="points=[];aspect=fixed;html=1;align=center;shadow=0;dashed=0;image;image=img/lib/allied_telesis/wireless/Access_Point_Indoor.svg;" parent="1" vertex="1">
          <mxGeometry x="720" y="490.4" width="36.6" height="54.6" as="geometry" />
        </mxCell>
        <mxCell id="a5hrNvRQqh1UAUawmXAg-7" value="" style="endArrow=classic;startArrow=classic;html=1;" parent="1" source="1c7a67bf8fd3230f-80" target="a5hrNvRQqh1UAUawmXAg-1" edge="1">
          <mxGeometry width="50" height="50" relative="1" as="geometry">
            <mxPoint x="1060" y="920" as="sourcePoint" />
            <mxPoint x="1110" y="870" as="targetPoint" />
          </mxGeometry>
        </mxCell>
        <mxCell id="a5hrNvRQqh1UAUawmXAg-9" value="" style="shape=link;html=1;" parent="1" source="a5hrNvRQqh1UAUawmXAg-1" target="a5hrNvRQqh1UAUawmXAg-2" edge="1">
          <mxGeometry width="100" relative="1" as="geometry">
            <mxPoint x="1030" y="890" as="sourcePoint" />
            <mxPoint x="1130" y="890" as="targetPoint" />
          </mxGeometry>
        </mxCell>
        <mxCell id="a5hrNvRQqh1UAUawmXAg-12" value="" style="shape=link;html=1;exitX=0.8;exitY=0.8;exitDx=0;exitDy=0;exitPerimeter=0;" parent="1" source="a5hrNvRQqh1UAUawmXAg-1" target="a5hrNvRQqh1UAUawmXAg-3" edge="1">
          <mxGeometry width="100" relative="1" as="geometry">
            <mxPoint x="1361.763861881474" y="843.5453138404264" as="sourcePoint" />
            <mxPoint x="1420" y="847.4683544303798" as="targetPoint" />
          </mxGeometry>
        </mxCell>
        <mxCell id="PBQgG6vs_vNaJ8AgEKtN-30" value="" style="endArrow=classic;startArrow=classic;html=1;exitX=1;exitY=0.5;exitDx=0;exitDy=0;entryX=0.16;entryY=0.55;entryDx=0;entryDy=0;entryPerimeter=0;" parent="1" source="1c7a67bf8fd3230f-81" target="a5hrNvRQqh1UAUawmXAg-1" edge="1">
          <mxGeometry width="50" height="50" relative="1" as="geometry">
            <mxPoint x="970" y="790" as="sourcePoint" />
            <mxPoint x="1020" y="740" as="targetPoint" />
          </mxGeometry>
        </mxCell>
        <mxCell id="PBQgG6vs_vNaJ8AgEKtN-31" value="" style="shape=mxgraph.cisco.switches.content_switch;html=1;dashed=0;fillColor=#036897;strokeColor=#ffffff;strokeWidth=2;verticalLabelPosition=bottom;verticalAlign=top;rounded=0;shadow=0;comic=0;fontFamily=Verdana;fontSize=12;" parent="1" vertex="1">
          <mxGeometry x="1280" y="427" width="64" height="86" as="geometry" />
        </mxCell>
        <mxCell id="PBQgG6vs_vNaJ8AgEKtN-32" value="Wifi" style="ellipse;shape=cloud;whiteSpace=wrap;html=1;fontSize=16;fontColor=#000000;" parent="1" vertex="1">
          <mxGeometry x="1060" y="400" width="120" height="80" as="geometry" />
        </mxCell>
        <mxCell id="PBQgG6vs_vNaJ8AgEKtN-33" value="" style="endArrow=none;dashed=1;html=1;dashPattern=1 3;strokeWidth=2;fontSize=16;fontColor=#000000;exitX=1;exitY=0.5;exitDx=0;exitDy=0;exitPerimeter=0;entryX=0.96;entryY=0.7;entryDx=0;entryDy=0;entryPerimeter=0;" parent="1" source="PBQgG6vs_vNaJ8AgEKtN-31" target="PBQgG6vs_vNaJ8AgEKtN-32" edge="1">
          <mxGeometry width="50" height="50" relative="1" as="geometry">
            <mxPoint x="1736" y="650" as="sourcePoint" />
            <mxPoint x="1786" y="600" as="targetPoint" />
          </mxGeometry>
        </mxCell>
        <mxCell id="PBQgG6vs_vNaJ8AgEKtN-34" value="" style="endArrow=none;dashed=1;html=1;dashPattern=1 3;strokeWidth=2;fontSize=16;fontColor=#000000;entryX=1;entryY=0.5;entryDx=0;entryDy=0;exitX=0.16;exitY=0.55;exitDx=0;exitDy=0;exitPerimeter=0;" parent="1" source="PBQgG6vs_vNaJ8AgEKtN-32" target="8O-4UDquNe1LH9vyQnWJ-9" edge="1">
          <mxGeometry width="50" height="50" relative="1" as="geometry">
            <mxPoint x="1060" y="481" as="sourcePoint" />
            <mxPoint x="1526" y="650" as="targetPoint" />
          </mxGeometry>
        </mxCell>
        <mxCell id="PBQgG6vs_vNaJ8AgEKtN-35" value="" style="points=[];aspect=fixed;html=1;align=center;shadow=0;dashed=0;image;image=img/lib/allied_telesis/wireless/Access_Point_Indoor.svg;" parent="1" vertex="1">
          <mxGeometry x="1280" y="475" width="36.6" height="54.6" as="geometry" />
        </mxCell>
        <mxCell id="PBQgG6vs_vNaJ8AgEKtN-36" value="Strommessung&lt;br&gt;" style="whiteSpace=wrap;html=1;aspect=fixed;fontSize=16;fontColor=#000000;" parent="1" vertex="1">
          <mxGeometry x="1450" y="440" width="120" height="120" as="geometry" />
        </mxCell>
        <mxCell id="PBQgG6vs_vNaJ8AgEKtN-37" style="edgeStyle=none;html=1;labelBackgroundColor=none;startFill=0;endArrow=none;endFill=0;strokeWidth=2;fontFamily=Verdana;fontSize=12;entryX=0;entryY=0.5;entryDx=0;entryDy=0;" parent="1" target="PBQgG6vs_vNaJ8AgEKtN-36" edge="1">
          <mxGeometry relative="1" as="geometry">
            <mxPoint x="601" y="510.5572519083971" as="targetPoint" />
            <mxPoint x="1340" y="480" as="sourcePoint" />
          </mxGeometry>
        </mxCell>
        <mxCell id="PBQgG6vs_vNaJ8AgEKtN-40" value="" style="aspect=fixed;html=1;points=[];align=center;image;fontSize=12;image=img/lib/mscae/StackOverflow.svg;" parent="1" vertex="1">
          <mxGeometry x="230" y="321.75" width="170" height="212.5" as="geometry" />
        </mxCell>
        <mxCell id="BN8SnjIYv3nQ8zb93u1f-1" value="ESP 32" style="text;html=1;strokeColor=none;fillColor=none;align=center;verticalAlign=middle;whiteSpace=wrap;rounded=0;fontSize=16;" parent="1" vertex="1">
          <mxGeometry x="1270" y="405" width="74" height="20" as="geometry" />
        </mxCell>
        <mxCell id="BN8SnjIYv3nQ8zb93u1f-2" value="Watt wollt ampera&lt;br&gt;" style="text;html=1;strokeColor=none;fillColor=none;align=center;verticalAlign=middle;whiteSpace=wrap;rounded=0;" parent="1" vertex="1">
          <mxGeometry x="1490" y="525" width="40" height="20" as="geometry" />
        </mxCell>
      </root>
    </mxGraphModel>
  </diagram>
</mxfile>
